M48
; DRILL file {KiCad 7.0.10-7.0.10~ubuntu23.04.1} date Thu 08 Feb 2024 03:56:46 PM EST
; FORMAT={-:-/ absolute / inch / decimal}
; #@! TF.CreationDate,2024-02-08T15:56:46-05:00
; #@! TF.GenerationSoftware,Kicad,Pcbnew,7.0.10-7.0.10~ubuntu23.04.1
; #@! TF.FileFunction,MixedPlating,1,2
FMAT,2
INCH
; #@! TA.AperFunction,Plated,PTH,ComponentDrill
T1C0.0299
; #@! TA.AperFunction,Plated,PTH,ViaDrill
T2C0.0394
; #@! TA.AperFunction,Plated,PTH,ComponentDrill
T3C0.0394
; #@! TA.AperFunction,NonPlated,NPTH,ComponentDrill
T4C0.1260
%
G90
G05
T1
X4.1602Y-3.4154
X4.2602Y-3.4154
X4.3602Y-3.4154
T2
X4.5374Y-3.4154
X4.626Y-3.5335
X5.2165Y-2.1358
X5.2165Y-3.0217
X5.6791Y-3.6122
X5.935Y-2.1161
X5.935Y-3.0413
X6.1713Y-2.1161
X6.1713Y-3.0315
X6.8799Y-2.1161
X6.8799Y-3.0413
T3
X6.0433Y-3.563
X6.212Y-3.762
X6.312Y-3.762
X6.612Y-3.762
X6.612Y-3.862
T4
X4.512Y-1.912
X4.512Y-3.812
X7.112Y-2.037
X7.112Y-3.687
M30
