%TF.GenerationSoftware,KiCad,Pcbnew,7.0.10-7.0.10~ubuntu23.04.1*%
%TF.CreationDate,2024-02-08T15:56:08-05:00*%
%TF.ProjectId,DigitalSynthCape,44696769-7461-46c5-9379-6e7468436170,rev?*%
%TF.SameCoordinates,Original*%
%TF.FileFunction,Copper,L2,Bot*%
%TF.FilePolarity,Positive*%
%FSLAX46Y46*%
G04 Gerber Fmt 4.6, Leading zero omitted, Abs format (unit mm)*
G04 Created by KiCad (PCBNEW 7.0.10-7.0.10~ubuntu23.04.1) date 2024-02-08 15:56:08*
%MOMM*%
%LPD*%
G01*
G04 APERTURE LIST*
%TA.AperFunction,ComponentPad*%
%ADD10O,1.700000X1.700000*%
%TD*%
%TA.AperFunction,ComponentPad*%
%ADD11R,1.268000X1.268000*%
%TD*%
%TA.AperFunction,ComponentPad*%
%ADD12C,1.268000*%
%TD*%
%TA.AperFunction,ViaPad*%
%ADD13C,1.500000*%
%TD*%
%TA.AperFunction,Conductor*%
%ADD14C,1.000000*%
%TD*%
G04 APERTURE END LIST*
D10*
%TO.P,,32,Pin_32*%
%TO.N,+1V8*%
X153500000Y-90500000D03*
%TD*%
%TO.P,P9,32,Pin_32*%
%TO.N,+1V8*%
X157785000Y-95555000D03*
%TO.P,P9,34,Pin_34*%
%TO.N,GNDA*%
X160325000Y-95555000D03*
%TO.P,P9,39,Pin_39*%
%TO.N,/AIN0*%
X167945000Y-98095000D03*
%TO.P,P9,40,Pin_40*%
%TO.N,/AIN1*%
X167945000Y-95555000D03*
%TD*%
D11*
%TO.P,R18,1*%
%TO.N,+1V8*%
X105670000Y-86750000D03*
D12*
%TO.P,R18,2*%
%TO.N,/AIN1*%
X108210000Y-86750000D03*
%TO.P,R18,3*%
%TO.N,GNDA*%
X110750000Y-86750000D03*
%TD*%
D13*
%TO.N,/AIN1*%
X117500000Y-89750000D03*
%TO.N,+1V8*%
X144250000Y-91750000D03*
%TO.N,/Key2*%
X132500000Y-76750000D03*
X132500000Y-54250000D03*
%TO.N,/Key7*%
X150750000Y-53750000D03*
X150750000Y-77250000D03*
%TO.N,/Key9*%
X156750000Y-53750000D03*
X156750000Y-77000000D03*
%TO.N,/Key14*%
X174750000Y-53750000D03*
X174750000Y-77250000D03*
%TO.N,GNDA*%
X115250000Y-86750000D03*
%TD*%
D14*
%TO.N,/Key7*%
X150750000Y-77250000D02*
X150750000Y-53750000D01*
%TO.N,/Key9*%
X156750000Y-77000000D02*
X156750000Y-53750000D01*
%TO.N,/Key14*%
X174750000Y-77250000D02*
X174750000Y-53750000D01*
%TO.N,/Key2*%
X132500000Y-54250000D02*
X132500000Y-76750000D01*
%TO.N,/AIN1*%
X110000000Y-89750000D02*
X117500000Y-89750000D01*
X108210000Y-86750000D02*
X108210000Y-87960000D01*
X108210000Y-87960000D02*
X110000000Y-89750000D01*
%TO.N,+1V8*%
X144250000Y-91750000D02*
X108250000Y-91750000D01*
X152250000Y-91750000D02*
X153500000Y-90500000D01*
X144250000Y-91750000D02*
X152250000Y-91750000D01*
X108250000Y-91750000D02*
X105670000Y-89170000D01*
X105670000Y-89170000D02*
X105670000Y-86750000D01*
%TO.N,GNDA*%
X110750000Y-86750000D02*
X115250000Y-86750000D01*
%TD*%
%TA.AperFunction,Conductor*%
%TO.N,/Key7*%
G36*
X151486208Y-53749981D02*
G01*
X151494475Y-53753419D01*
X151497891Y-53761697D01*
X151497732Y-53763604D01*
X151251630Y-55240223D01*
X151246889Y-55247821D01*
X151240089Y-55250000D01*
X150259911Y-55250000D01*
X150251638Y-55246573D01*
X150248370Y-55240223D01*
X150002267Y-53763604D01*
X150004287Y-53754881D01*
X150011885Y-53750140D01*
X150013784Y-53749981D01*
X150750000Y-53749000D01*
X151486208Y-53749981D01*
G37*
%TD.AperFunction*%
%TD*%
%TA.AperFunction,Conductor*%
%TO.N,/Key7*%
G36*
X151248362Y-75753427D02*
G01*
X151251630Y-75759777D01*
X151497732Y-77236395D01*
X151495712Y-77245118D01*
X151488114Y-77249859D01*
X151486207Y-77250018D01*
X150750016Y-77250999D01*
X150749984Y-77250999D01*
X150013792Y-77250018D01*
X150005524Y-77246580D01*
X150002108Y-77238302D01*
X150002266Y-77236401D01*
X150248370Y-75759775D01*
X150253111Y-75752179D01*
X150259911Y-75750000D01*
X151240089Y-75750000D01*
X151248362Y-75753427D01*
G37*
%TD.AperFunction*%
%TD*%
%TA.AperFunction,Conductor*%
%TO.N,/Key9*%
G36*
X157486208Y-53749981D02*
G01*
X157494475Y-53753419D01*
X157497891Y-53761697D01*
X157497732Y-53763604D01*
X157251630Y-55240223D01*
X157246889Y-55247821D01*
X157240089Y-55250000D01*
X156259911Y-55250000D01*
X156251638Y-55246573D01*
X156248370Y-55240223D01*
X156002267Y-53763604D01*
X156004287Y-53754881D01*
X156011885Y-53750140D01*
X156013784Y-53749981D01*
X156750000Y-53749000D01*
X157486208Y-53749981D01*
G37*
%TD.AperFunction*%
%TD*%
%TA.AperFunction,Conductor*%
%TO.N,/Key9*%
G36*
X157248362Y-75503427D02*
G01*
X157251630Y-75509777D01*
X157497732Y-76986395D01*
X157495712Y-76995118D01*
X157488114Y-76999859D01*
X157486207Y-77000018D01*
X156750016Y-77000999D01*
X156749984Y-77000999D01*
X156013792Y-77000018D01*
X156005524Y-76996580D01*
X156002108Y-76988302D01*
X156002266Y-76986401D01*
X156248370Y-75509775D01*
X156253111Y-75502179D01*
X156259911Y-75500000D01*
X157240089Y-75500000D01*
X157248362Y-75503427D01*
G37*
%TD.AperFunction*%
%TD*%
%TA.AperFunction,Conductor*%
%TO.N,/Key14*%
G36*
X175486208Y-53749981D02*
G01*
X175494475Y-53753419D01*
X175497891Y-53761697D01*
X175497732Y-53763604D01*
X175251630Y-55240223D01*
X175246889Y-55247821D01*
X175240089Y-55250000D01*
X174259911Y-55250000D01*
X174251638Y-55246573D01*
X174248370Y-55240223D01*
X174002267Y-53763604D01*
X174004287Y-53754881D01*
X174011885Y-53750140D01*
X174013784Y-53749981D01*
X174750000Y-53749000D01*
X175486208Y-53749981D01*
G37*
%TD.AperFunction*%
%TD*%
%TA.AperFunction,Conductor*%
%TO.N,/Key14*%
G36*
X175248362Y-75753427D02*
G01*
X175251630Y-75759777D01*
X175497732Y-77236395D01*
X175495712Y-77245118D01*
X175488114Y-77249859D01*
X175486207Y-77250018D01*
X174750016Y-77250999D01*
X174749984Y-77250999D01*
X174013792Y-77250018D01*
X174005524Y-77246580D01*
X174002108Y-77238302D01*
X174002266Y-77236401D01*
X174248370Y-75759775D01*
X174253111Y-75752179D01*
X174259911Y-75750000D01*
X175240089Y-75750000D01*
X175248362Y-75753427D01*
G37*
%TD.AperFunction*%
%TD*%
%TA.AperFunction,Conductor*%
%TO.N,/Key2*%
G36*
X132998362Y-75253427D02*
G01*
X133001630Y-75259777D01*
X133247732Y-76736395D01*
X133245712Y-76745118D01*
X133238114Y-76749859D01*
X133236207Y-76750018D01*
X132500016Y-76750999D01*
X132499984Y-76750999D01*
X131763792Y-76750018D01*
X131755524Y-76746580D01*
X131752108Y-76738302D01*
X131752266Y-76736401D01*
X131998370Y-75259775D01*
X132003111Y-75252179D01*
X132009911Y-75250000D01*
X132990089Y-75250000D01*
X132998362Y-75253427D01*
G37*
%TD.AperFunction*%
%TD*%
%TA.AperFunction,Conductor*%
%TO.N,/Key2*%
G36*
X133236208Y-54249981D02*
G01*
X133244475Y-54253419D01*
X133247891Y-54261697D01*
X133247732Y-54263604D01*
X133001630Y-55740223D01*
X132996889Y-55747821D01*
X132990089Y-55750000D01*
X132009911Y-55750000D01*
X132001638Y-55746573D01*
X131998370Y-55740223D01*
X131752267Y-54263604D01*
X131754287Y-54254881D01*
X131761885Y-54250140D01*
X131763784Y-54249981D01*
X132500000Y-54249000D01*
X133236208Y-54249981D01*
G37*
%TD.AperFunction*%
%TD*%
%TA.AperFunction,Conductor*%
%TO.N,/AIN1*%
G36*
X117495118Y-89004287D02*
G01*
X117499859Y-89011885D01*
X117500018Y-89013792D01*
X117501000Y-89750000D01*
X117501000Y-89750032D01*
X117500018Y-90486207D01*
X117496580Y-90494475D01*
X117488302Y-90497891D01*
X117486395Y-90497732D01*
X116009777Y-90251629D01*
X116002179Y-90246888D01*
X116000000Y-90240088D01*
X116000000Y-89259911D01*
X116003427Y-89251638D01*
X116009775Y-89248370D01*
X117486396Y-89002267D01*
X117495118Y-89004287D01*
G37*
%TD.AperFunction*%
%TD*%
%TA.AperFunction,Conductor*%
%TO.N,/AIN1*%
G36*
X108580482Y-86903306D02*
G01*
X108786053Y-86988602D01*
X108792381Y-86994938D01*
X108792800Y-87002688D01*
X108605404Y-87644583D01*
X108602446Y-87649577D01*
X107912906Y-88339117D01*
X107904633Y-88342544D01*
X107896360Y-88339117D01*
X107893162Y-88333145D01*
X107626148Y-87002034D01*
X107627880Y-86993252D01*
X107633124Y-86988933D01*
X108204806Y-86751158D01*
X108213758Y-86751146D01*
X108580482Y-86903306D01*
G37*
%TD.AperFunction*%
%TD*%
%TA.AperFunction,Conductor*%
%TO.N,+1V8*%
G36*
X144245118Y-91004287D02*
G01*
X144249859Y-91011885D01*
X144250018Y-91013792D01*
X144251000Y-91750000D01*
X144251000Y-91750032D01*
X144250018Y-92486207D01*
X144246580Y-92494475D01*
X144238302Y-92497891D01*
X144236395Y-92497732D01*
X142759777Y-92251629D01*
X142752179Y-92246888D01*
X142750000Y-92240088D01*
X142750000Y-91259911D01*
X142753427Y-91251638D01*
X142759775Y-91248370D01*
X144236396Y-91002267D01*
X144245118Y-91004287D01*
G37*
%TD.AperFunction*%
%TD*%
%TA.AperFunction,Conductor*%
%TO.N,+1V8*%
G36*
X152723639Y-90178409D02*
G01*
X153496215Y-90497438D01*
X153502552Y-90503761D01*
X153502562Y-90503785D01*
X153821589Y-91276357D01*
X153821580Y-91285312D01*
X153817194Y-91290605D01*
X152659431Y-92050411D01*
X152650635Y-92052085D01*
X152644739Y-92048902D01*
X151951097Y-91355260D01*
X151947670Y-91346987D01*
X151949587Y-91340570D01*
X152709396Y-90182803D01*
X152716799Y-90177768D01*
X152723639Y-90178409D01*
G37*
%TD.AperFunction*%
%TD*%
%TA.AperFunction,Conductor*%
%TO.N,+1V8*%
G36*
X144263599Y-91002266D02*
G01*
X145740224Y-91248370D01*
X145747821Y-91253111D01*
X145750000Y-91259911D01*
X145750000Y-92240088D01*
X145746573Y-92248361D01*
X145740223Y-92251629D01*
X144263604Y-92497732D01*
X144254881Y-92495712D01*
X144250140Y-92488114D01*
X144249981Y-92486214D01*
X144249000Y-91750000D01*
X144249981Y-91013790D01*
X144253419Y-91005524D01*
X144261697Y-91002108D01*
X144263599Y-91002266D01*
G37*
%TD.AperFunction*%
%TD*%
%TA.AperFunction,Conductor*%
%TO.N,+1V8*%
G36*
X105678267Y-86757280D02*
G01*
X105678280Y-86757293D01*
X106299522Y-87379515D01*
X106302942Y-87387791D01*
X106302689Y-87390201D01*
X106171962Y-88008719D01*
X106166899Y-88016105D01*
X106160515Y-88018000D01*
X105179485Y-88018000D01*
X105171212Y-88014573D01*
X105168038Y-88008719D01*
X105037310Y-87390199D01*
X105038952Y-87381398D01*
X105040472Y-87379519D01*
X105661720Y-86757292D01*
X105669991Y-86753860D01*
X105678267Y-86757280D01*
G37*
%TD.AperFunction*%
%TD*%
%TA.AperFunction,Conductor*%
%TO.N,GNDA*%
G36*
X115245118Y-86004287D02*
G01*
X115249859Y-86011885D01*
X115250018Y-86013792D01*
X115251000Y-86750000D01*
X115251000Y-86750032D01*
X115250018Y-87486207D01*
X115246580Y-87494475D01*
X115238302Y-87497891D01*
X115236395Y-87497732D01*
X113759777Y-87251629D01*
X113752179Y-87246888D01*
X113750000Y-87240088D01*
X113750000Y-86259911D01*
X113753427Y-86251638D01*
X113759775Y-86248370D01*
X115236396Y-86002267D01*
X115245118Y-86004287D01*
G37*
%TD.AperFunction*%
%TD*%
%TA.AperFunction,Conductor*%
%TO.N,GNDA*%
G36*
X110762905Y-86117363D02*
G01*
X112007531Y-86248893D01*
X112015397Y-86253170D01*
X112018000Y-86260528D01*
X112018000Y-87239471D01*
X112014573Y-87247744D01*
X112007530Y-87251106D01*
X110762909Y-87382635D01*
X110754321Y-87380097D01*
X110750044Y-87372230D01*
X110749979Y-87371028D01*
X110749000Y-86750000D01*
X110749979Y-86128979D01*
X110753419Y-86120713D01*
X110761697Y-86117299D01*
X110762905Y-86117363D01*
G37*
%TD.AperFunction*%
%TD*%
M02*
