%TF.GenerationSoftware,KiCad,Pcbnew,7.0.10-7.0.10~ubuntu23.04.1*%
%TF.CreationDate,2024-02-08T15:56:08-05:00*%
%TF.ProjectId,DigitalSynthCape,44696769-7461-46c5-9379-6e7468436170,rev?*%
%TF.SameCoordinates,Original*%
%TF.FileFunction,Copper,L1,Top*%
%TF.FilePolarity,Positive*%
%FSLAX46Y46*%
G04 Gerber Fmt 4.6, Leading zero omitted, Abs format (unit mm)*
G04 Created by KiCad (PCBNEW 7.0.10-7.0.10~ubuntu23.04.1) date 2024-02-08 15:56:08*
%MOMM*%
%LPD*%
G01*
G04 APERTURE LIST*
G04 Aperture macros list*
%AMRoundRect*
0 Rectangle with rounded corners*
0 $1 Rounding radius*
0 $2 $3 $4 $5 $6 $7 $8 $9 X,Y pos of 4 corners*
0 Add a 4 corners polygon primitive as box body*
4,1,4,$2,$3,$4,$5,$6,$7,$8,$9,$2,$3,0*
0 Add four circle primitives for the rounded corners*
1,1,$1+$1,$2,$3*
1,1,$1+$1,$4,$5*
1,1,$1+$1,$6,$7*
1,1,$1+$1,$8,$9*
0 Add four rect primitives between the rounded corners*
20,1,$1+$1,$2,$3,$4,$5,0*
20,1,$1+$1,$4,$5,$6,$7,0*
20,1,$1+$1,$6,$7,$8,$9,0*
20,1,$1+$1,$8,$9,$2,$3,0*%
G04 Aperture macros list end*
%ADD10C,0.500000*%
%TA.AperFunction,NonConductor*%
%ADD11C,0.500000*%
%TD*%
%TA.AperFunction,ComponentPad*%
%ADD12O,1.700000X1.700000*%
%TD*%
%TA.AperFunction,SMDPad,CuDef*%
%ADD13RoundRect,0.250000X-0.625000X0.312500X-0.625000X-0.312500X0.625000X-0.312500X0.625000X0.312500X0*%
%TD*%
%TA.AperFunction,ComponentPad*%
%ADD14R,1.268000X1.268000*%
%TD*%
%TA.AperFunction,ComponentPad*%
%ADD15C,1.268000*%
%TD*%
%TA.AperFunction,ViaPad*%
%ADD16C,1.500000*%
%TD*%
%TA.AperFunction,Conductor*%
%ADD17C,1.000000*%
%TD*%
G04 APERTURE END LIST*
D10*
D11*
X164456767Y-48143142D02*
X164456767Y-51143142D01*
X162742481Y-48143142D02*
X164028195Y-49857428D01*
X162742481Y-51143142D02*
X164456767Y-49428857D01*
X160313910Y-48286000D02*
X160599624Y-48143142D01*
X160599624Y-48143142D02*
X161171053Y-48143142D01*
X161171053Y-48143142D02*
X161456767Y-48286000D01*
X161456767Y-48286000D02*
X161599624Y-48571714D01*
X161599624Y-48571714D02*
X161599624Y-49714571D01*
X161599624Y-49714571D02*
X161456767Y-50000285D01*
X161456767Y-50000285D02*
X161171053Y-50143142D01*
X161171053Y-50143142D02*
X160599624Y-50143142D01*
X160599624Y-50143142D02*
X160313910Y-50000285D01*
X160313910Y-50000285D02*
X160171053Y-49714571D01*
X160171053Y-49714571D02*
X160171053Y-49428857D01*
X160171053Y-49428857D02*
X161599624Y-49143142D01*
X159171052Y-50143142D02*
X158456766Y-48143142D01*
X157742481Y-50143142D02*
X158456766Y-48143142D01*
X158456766Y-48143142D02*
X158742481Y-47428857D01*
X158742481Y-47428857D02*
X158885338Y-47286000D01*
X158885338Y-47286000D02*
X159171052Y-47143142D01*
X156599624Y-48143142D02*
X156599624Y-51143142D01*
X156599624Y-50000285D02*
X156313910Y-50143142D01*
X156313910Y-50143142D02*
X155742481Y-50143142D01*
X155742481Y-50143142D02*
X155456767Y-50000285D01*
X155456767Y-50000285D02*
X155313910Y-49857428D01*
X155313910Y-49857428D02*
X155171052Y-49571714D01*
X155171052Y-49571714D02*
X155171052Y-48714571D01*
X155171052Y-48714571D02*
X155313910Y-48428857D01*
X155313910Y-48428857D02*
X155456767Y-48286000D01*
X155456767Y-48286000D02*
X155742481Y-48143142D01*
X155742481Y-48143142D02*
X156313910Y-48143142D01*
X156313910Y-48143142D02*
X156599624Y-48286000D01*
X153456766Y-48143142D02*
X153742481Y-48286000D01*
X153742481Y-48286000D02*
X153885338Y-48428857D01*
X153885338Y-48428857D02*
X154028195Y-48714571D01*
X154028195Y-48714571D02*
X154028195Y-49571714D01*
X154028195Y-49571714D02*
X153885338Y-49857428D01*
X153885338Y-49857428D02*
X153742481Y-50000285D01*
X153742481Y-50000285D02*
X153456766Y-50143142D01*
X153456766Y-50143142D02*
X153028195Y-50143142D01*
X153028195Y-50143142D02*
X152742481Y-50000285D01*
X152742481Y-50000285D02*
X152599624Y-49857428D01*
X152599624Y-49857428D02*
X152456766Y-49571714D01*
X152456766Y-49571714D02*
X152456766Y-48714571D01*
X152456766Y-48714571D02*
X152599624Y-48428857D01*
X152599624Y-48428857D02*
X152742481Y-48286000D01*
X152742481Y-48286000D02*
X153028195Y-48143142D01*
X153028195Y-48143142D02*
X153456766Y-48143142D01*
X149885338Y-48143142D02*
X149885338Y-49714571D01*
X149885338Y-49714571D02*
X150028195Y-50000285D01*
X150028195Y-50000285D02*
X150313909Y-50143142D01*
X150313909Y-50143142D02*
X150885338Y-50143142D01*
X150885338Y-50143142D02*
X151171052Y-50000285D01*
X149885338Y-48286000D02*
X150171052Y-48143142D01*
X150171052Y-48143142D02*
X150885338Y-48143142D01*
X150885338Y-48143142D02*
X151171052Y-48286000D01*
X151171052Y-48286000D02*
X151313909Y-48571714D01*
X151313909Y-48571714D02*
X151313909Y-48857428D01*
X151313909Y-48857428D02*
X151171052Y-49143142D01*
X151171052Y-49143142D02*
X150885338Y-49286000D01*
X150885338Y-49286000D02*
X150171052Y-49286000D01*
X150171052Y-49286000D02*
X149885338Y-49428857D01*
X148456766Y-48143142D02*
X148456766Y-50143142D01*
X148456766Y-49571714D02*
X148313909Y-49857428D01*
X148313909Y-49857428D02*
X148171052Y-50000285D01*
X148171052Y-50000285D02*
X147885337Y-50143142D01*
X147885337Y-50143142D02*
X147599623Y-50143142D01*
X145313909Y-48143142D02*
X145313909Y-51143142D01*
X145313909Y-48286000D02*
X145599623Y-48143142D01*
X145599623Y-48143142D02*
X146171051Y-48143142D01*
X146171051Y-48143142D02*
X146456766Y-48286000D01*
X146456766Y-48286000D02*
X146599623Y-48428857D01*
X146599623Y-48428857D02*
X146742480Y-48714571D01*
X146742480Y-48714571D02*
X146742480Y-49571714D01*
X146742480Y-49571714D02*
X146599623Y-49857428D01*
X146599623Y-49857428D02*
X146456766Y-50000285D01*
X146456766Y-50000285D02*
X146171051Y-50143142D01*
X146171051Y-50143142D02*
X145599623Y-50143142D01*
X145599623Y-50143142D02*
X145313909Y-50000285D01*
X139885337Y-48428857D02*
X140028194Y-48286000D01*
X140028194Y-48286000D02*
X140456766Y-48143142D01*
X140456766Y-48143142D02*
X140742480Y-48143142D01*
X140742480Y-48143142D02*
X141171051Y-48286000D01*
X141171051Y-48286000D02*
X141456766Y-48571714D01*
X141456766Y-48571714D02*
X141599623Y-48857428D01*
X141599623Y-48857428D02*
X141742480Y-49428857D01*
X141742480Y-49428857D02*
X141742480Y-49857428D01*
X141742480Y-49857428D02*
X141599623Y-50428857D01*
X141599623Y-50428857D02*
X141456766Y-50714571D01*
X141456766Y-50714571D02*
X141171051Y-51000285D01*
X141171051Y-51000285D02*
X140742480Y-51143142D01*
X140742480Y-51143142D02*
X140456766Y-51143142D01*
X140456766Y-51143142D02*
X140028194Y-51000285D01*
X140028194Y-51000285D02*
X139885337Y-50857428D01*
X137313909Y-48143142D02*
X137313909Y-49714571D01*
X137313909Y-49714571D02*
X137456766Y-50000285D01*
X137456766Y-50000285D02*
X137742480Y-50143142D01*
X137742480Y-50143142D02*
X138313909Y-50143142D01*
X138313909Y-50143142D02*
X138599623Y-50000285D01*
X137313909Y-48286000D02*
X137599623Y-48143142D01*
X137599623Y-48143142D02*
X138313909Y-48143142D01*
X138313909Y-48143142D02*
X138599623Y-48286000D01*
X138599623Y-48286000D02*
X138742480Y-48571714D01*
X138742480Y-48571714D02*
X138742480Y-48857428D01*
X138742480Y-48857428D02*
X138599623Y-49143142D01*
X138599623Y-49143142D02*
X138313909Y-49286000D01*
X138313909Y-49286000D02*
X137599623Y-49286000D01*
X137599623Y-49286000D02*
X137313909Y-49428857D01*
X135885337Y-50143142D02*
X135885337Y-47143142D01*
X135885337Y-50000285D02*
X135599623Y-50143142D01*
X135599623Y-50143142D02*
X135028194Y-50143142D01*
X135028194Y-50143142D02*
X134742480Y-50000285D01*
X134742480Y-50000285D02*
X134599623Y-49857428D01*
X134599623Y-49857428D02*
X134456765Y-49571714D01*
X134456765Y-49571714D02*
X134456765Y-48714571D01*
X134456765Y-48714571D02*
X134599623Y-48428857D01*
X134599623Y-48428857D02*
X134742480Y-48286000D01*
X134742480Y-48286000D02*
X135028194Y-48143142D01*
X135028194Y-48143142D02*
X135599623Y-48143142D01*
X135599623Y-48143142D02*
X135885337Y-48286000D01*
X132028194Y-48286000D02*
X132313908Y-48143142D01*
X132313908Y-48143142D02*
X132885337Y-48143142D01*
X132885337Y-48143142D02*
X133171051Y-48286000D01*
X133171051Y-48286000D02*
X133313908Y-48571714D01*
X133313908Y-48571714D02*
X133313908Y-49714571D01*
X133313908Y-49714571D02*
X133171051Y-50000285D01*
X133171051Y-50000285D02*
X132885337Y-50143142D01*
X132885337Y-50143142D02*
X132313908Y-50143142D01*
X132313908Y-50143142D02*
X132028194Y-50000285D01*
X132028194Y-50000285D02*
X131885337Y-49714571D01*
X131885337Y-49714571D02*
X131885337Y-49428857D01*
X131885337Y-49428857D02*
X133313908Y-49143142D01*
%TA.AperFunction,EtchedComponent*%
%TO.C,G\u002A\u002A\u002A*%
G36*
X125524469Y-47074243D02*
G01*
X125552937Y-47077183D01*
X125741764Y-47110725D01*
X125917600Y-47166166D01*
X126077558Y-47241754D01*
X126218749Y-47335733D01*
X126338285Y-47446351D01*
X126433276Y-47571854D01*
X126466904Y-47632039D01*
X126518276Y-47762596D01*
X126546273Y-47905270D01*
X126552740Y-48030153D01*
X126538185Y-48210456D01*
X126494609Y-48383433D01*
X126421533Y-48550090D01*
X126318478Y-48711434D01*
X126184964Y-48868470D01*
X126124264Y-48929023D01*
X126017942Y-49024894D01*
X125915236Y-49103758D01*
X125804796Y-49173525D01*
X125675272Y-49242104D01*
X125674239Y-49242614D01*
X125476982Y-49328648D01*
X125282378Y-49389102D01*
X125082122Y-49425874D01*
X124867908Y-49440867D01*
X124805446Y-49441424D01*
X124647235Y-49435742D01*
X124511752Y-49418963D01*
X124392115Y-49390011D01*
X124325343Y-49366456D01*
X124321301Y-49366183D01*
X124317676Y-49369822D01*
X124314437Y-49379005D01*
X124311559Y-49395363D01*
X124309012Y-49420527D01*
X124306769Y-49456129D01*
X124304801Y-49503798D01*
X124303082Y-49565167D01*
X124301582Y-49641866D01*
X124300274Y-49735527D01*
X124299130Y-49847781D01*
X124298122Y-49980258D01*
X124297223Y-50134591D01*
X124296403Y-50312409D01*
X124295635Y-50515345D01*
X124294891Y-50745028D01*
X124294144Y-51003091D01*
X124293551Y-51221274D01*
X124292792Y-51501857D01*
X124292076Y-51752914D01*
X124291368Y-51976184D01*
X124290635Y-52173402D01*
X124289846Y-52346306D01*
X124288966Y-52496631D01*
X124287964Y-52626115D01*
X124286806Y-52736495D01*
X124285459Y-52829506D01*
X124283890Y-52906886D01*
X124282066Y-52970371D01*
X124279955Y-53021698D01*
X124277523Y-53062603D01*
X124274738Y-53094824D01*
X124271566Y-53120097D01*
X124267975Y-53140159D01*
X124263932Y-53156746D01*
X124259403Y-53171594D01*
X124256405Y-53180492D01*
X124181489Y-53355983D01*
X124084247Y-53513333D01*
X123966844Y-53650223D01*
X123831447Y-53764336D01*
X123680220Y-53853351D01*
X123594061Y-53889683D01*
X123552330Y-53904041D01*
X123484316Y-53926201D01*
X123392342Y-53955460D01*
X123278728Y-53991118D01*
X123145797Y-54032472D01*
X122995870Y-54078820D01*
X122831269Y-54129461D01*
X122654315Y-54183692D01*
X122467329Y-54240813D01*
X122272633Y-54300120D01*
X122072550Y-54360912D01*
X121869399Y-54422487D01*
X121665503Y-54484144D01*
X121463183Y-54545180D01*
X121264762Y-54604893D01*
X121072560Y-54662583D01*
X120888898Y-54717546D01*
X120716099Y-54769082D01*
X120556485Y-54816487D01*
X120412375Y-54859061D01*
X120286093Y-54896101D01*
X120179960Y-54926906D01*
X120096297Y-54950774D01*
X120037425Y-54967002D01*
X120005667Y-54974890D01*
X120002850Y-54975393D01*
X119868862Y-54981525D01*
X119742851Y-54960827D01*
X119628579Y-54915045D01*
X119529810Y-54845924D01*
X119450306Y-54755209D01*
X119420457Y-54705213D01*
X119412652Y-54690151D01*
X119405532Y-54675372D01*
X119399065Y-54659444D01*
X119393219Y-54640937D01*
X119387964Y-54618420D01*
X119383266Y-54590460D01*
X119379095Y-54555626D01*
X119375420Y-54512488D01*
X119372209Y-54459614D01*
X119369430Y-54395572D01*
X119367051Y-54318931D01*
X119365042Y-54228261D01*
X119363371Y-54122129D01*
X119362006Y-53999104D01*
X119360916Y-53857755D01*
X119360070Y-53696651D01*
X119359435Y-53514360D01*
X119358980Y-53309451D01*
X119358674Y-53080492D01*
X119358486Y-52826053D01*
X119358383Y-52544702D01*
X119358335Y-52235008D01*
X119358309Y-51895539D01*
X119358308Y-51881731D01*
X119358291Y-51545875D01*
X119358300Y-51239821D01*
X119358352Y-50962112D01*
X119358463Y-50711287D01*
X119358650Y-50485889D01*
X119358929Y-50284458D01*
X119359317Y-50105535D01*
X119359830Y-49947663D01*
X119360484Y-49809381D01*
X119361297Y-49689230D01*
X119362284Y-49585754D01*
X119363462Y-49497491D01*
X119364848Y-49422984D01*
X119366458Y-49360773D01*
X119368308Y-49309400D01*
X119370415Y-49267407D01*
X119372795Y-49233333D01*
X119375466Y-49205720D01*
X119378442Y-49183110D01*
X119381742Y-49164044D01*
X119385380Y-49147062D01*
X119389372Y-49130715D01*
X119450128Y-48952840D01*
X119538836Y-48784256D01*
X119653068Y-48626873D01*
X119790400Y-48482600D01*
X119948404Y-48353348D01*
X120124655Y-48241026D01*
X120316726Y-48147545D01*
X120522191Y-48074815D01*
X120738623Y-48024745D01*
X120807858Y-48014083D01*
X120902277Y-48005375D01*
X121012341Y-48001765D01*
X121129354Y-48002934D01*
X121244622Y-48008565D01*
X121349449Y-48018341D01*
X121435141Y-48031942D01*
X121460461Y-48037936D01*
X121642038Y-48096628D01*
X121798870Y-48169071D01*
X121878796Y-48217210D01*
X122018615Y-48325371D01*
X122130056Y-48446525D01*
X122213401Y-48581178D01*
X122268930Y-48729835D01*
X122296925Y-48893003D01*
X122300659Y-48975815D01*
X122296318Y-49100822D01*
X122279397Y-49212633D01*
X122247238Y-49322281D01*
X122197183Y-49440799D01*
X122180132Y-49476000D01*
X122081798Y-49640530D01*
X121956769Y-49793630D01*
X121808206Y-49933132D01*
X121639273Y-50056869D01*
X121453131Y-50162674D01*
X121252942Y-50248377D01*
X121041870Y-50311813D01*
X120925732Y-50335827D01*
X120788640Y-50352917D01*
X120640364Y-50359562D01*
X120488693Y-50356261D01*
X120341419Y-50343515D01*
X120206331Y-50321824D01*
X120091220Y-50291687D01*
X120059677Y-50280263D01*
X119983353Y-50250179D01*
X119983584Y-51512135D01*
X119983736Y-51753460D01*
X119984115Y-51965164D01*
X119984745Y-52148888D01*
X119985652Y-52306274D01*
X119986860Y-52438961D01*
X119988393Y-52548590D01*
X119990277Y-52636803D01*
X119992535Y-52705238D01*
X119995193Y-52755538D01*
X119998275Y-52789343D01*
X120001806Y-52808293D01*
X120003122Y-52811662D01*
X120049107Y-52869273D01*
X120114100Y-52903098D01*
X120182689Y-52911803D01*
X120208494Y-52907766D01*
X120257708Y-52895957D01*
X120330972Y-52876184D01*
X120428929Y-52848255D01*
X120552222Y-52811976D01*
X120701493Y-52767156D01*
X120877384Y-52713600D01*
X121080539Y-52651118D01*
X121311599Y-52579515D01*
X121571207Y-52498600D01*
X121811411Y-52423419D01*
X122065968Y-52343550D01*
X122292376Y-52272352D01*
X122492350Y-52209256D01*
X122667606Y-52153693D01*
X122819859Y-52105092D01*
X122950825Y-52062884D01*
X123062217Y-52026498D01*
X123155753Y-51995365D01*
X123233147Y-51968915D01*
X123296114Y-51946579D01*
X123346370Y-51927786D01*
X123385630Y-51911966D01*
X123415609Y-51898550D01*
X123438023Y-51886968D01*
X123452039Y-51878387D01*
X123534322Y-51812134D01*
X123600888Y-51736213D01*
X123645670Y-51658053D01*
X123655871Y-51628743D01*
X123658890Y-51601737D01*
X123661605Y-51543699D01*
X123664014Y-51454857D01*
X123666115Y-51335440D01*
X123667906Y-51185675D01*
X123669384Y-51005790D01*
X123670547Y-50796013D01*
X123671393Y-50556574D01*
X123671920Y-50287699D01*
X123672125Y-49989617D01*
X123672128Y-49963802D01*
X123672145Y-49695820D01*
X123672223Y-49457162D01*
X123672448Y-49245893D01*
X123672906Y-49060074D01*
X123673682Y-48897770D01*
X123674862Y-48757044D01*
X123676533Y-48635958D01*
X123678780Y-48532576D01*
X123681689Y-48444961D01*
X123685345Y-48371176D01*
X123689835Y-48309285D01*
X123695245Y-48257350D01*
X123701660Y-48213436D01*
X123709166Y-48175604D01*
X123717849Y-48141919D01*
X123727796Y-48110443D01*
X123739091Y-48079240D01*
X123751820Y-48046372D01*
X123757800Y-48031135D01*
X123833351Y-47876847D01*
X123935938Y-47726323D01*
X124061341Y-47583963D01*
X124205341Y-47454168D01*
X124363717Y-47341338D01*
X124485015Y-47272705D01*
X124677407Y-47190151D01*
X124885528Y-47127568D01*
X125101397Y-47086415D01*
X125317038Y-47068153D01*
X125524469Y-47074243D01*
G37*
%TD.AperFunction*%
%TD*%
D12*
%TO.P,,32,Pin_32*%
%TO.N,+1V8*%
X153500000Y-90500000D03*
%TD*%
%TO.P,P9,32,Pin_32*%
%TO.N,+1V8*%
X157785000Y-95555000D03*
%TO.P,P9,34,Pin_34*%
%TO.N,GNDA*%
X160325000Y-95555000D03*
%TO.P,P9,39,Pin_39*%
%TO.N,/AIN0*%
X167945000Y-98095000D03*
%TO.P,P9,40,Pin_40*%
%TO.N,/AIN1*%
X167945000Y-95555000D03*
%TD*%
D13*
%TO.P,R2,1*%
%TO.N,/Key2*%
X134359609Y-82537500D03*
%TO.P,R2,2*%
%TO.N,/AIN0*%
X134359609Y-85462500D03*
%TD*%
%TO.P,R14,1*%
%TO.N,/Key13*%
X169237771Y-82537500D03*
%TO.P,R14,2*%
%TO.N,/AIN0*%
X169237771Y-85462500D03*
%TD*%
%TO.P,R16,1*%
%TO.N,/Key15*%
X175579255Y-82537500D03*
%TO.P,R16,2*%
%TO.N,/AIN0*%
X175579255Y-85462500D03*
%TD*%
%TO.P,R11,1*%
%TO.N,/Key10*%
X159725545Y-82537500D03*
%TO.P,R11,2*%
%TO.N,/AIN0*%
X159725545Y-85462500D03*
%TD*%
%TO.P,R12,1*%
%TO.N,/Key11*%
X162896287Y-82537500D03*
%TO.P,R12,2*%
%TO.N,/AIN0*%
X162896287Y-85462500D03*
%TD*%
%TO.P,R8,1*%
%TO.N,/Key7*%
X150213319Y-82537500D03*
%TO.P,R8,2*%
%TO.N,/AIN0*%
X150213319Y-85462500D03*
%TD*%
%TO.P,R17,1*%
%TO.N,/Key16*%
X178750000Y-82537500D03*
%TO.P,R17,2*%
%TO.N,/AIN0*%
X178750000Y-85462500D03*
%TD*%
%TO.P,R13,1*%
%TO.N,/Key12*%
X166067029Y-82537500D03*
%TO.P,R13,2*%
%TO.N,/AIN0*%
X166067029Y-85462500D03*
%TD*%
%TO.P,R10,1*%
%TO.N,/Key9*%
X156554803Y-82537500D03*
%TO.P,R10,2*%
%TO.N,/AIN0*%
X156554803Y-85462500D03*
%TD*%
%TO.P,R5,1*%
%TO.N,/Key5*%
X143871835Y-82537500D03*
%TO.P,R5,2*%
%TO.N,/AIN0*%
X143871835Y-85462500D03*
%TD*%
%TO.P,R15,1*%
%TO.N,/Key14*%
X172408513Y-82537500D03*
%TO.P,R15,2*%
%TO.N,/AIN0*%
X172408513Y-85462500D03*
%TD*%
%TO.P,R7,1*%
%TO.N,/Key0*%
X128018125Y-82537500D03*
%TO.P,R7,2*%
%TO.N,/AIN0*%
X128018125Y-85462500D03*
%TD*%
%TO.P,R4,1*%
%TO.N,/Key4*%
X140701093Y-82537500D03*
%TO.P,R4,2*%
%TO.N,/AIN0*%
X140701093Y-85462500D03*
%TD*%
D14*
%TO.P,R18,1*%
%TO.N,+1V8*%
X105670000Y-86750000D03*
D15*
%TO.P,R18,2*%
%TO.N,/AIN1*%
X108210000Y-86750000D03*
%TO.P,R18,3*%
%TO.N,GNDA*%
X110750000Y-86750000D03*
%TD*%
D13*
%TO.P,R6,1*%
%TO.N,/Key6*%
X147042577Y-82537500D03*
%TO.P,R6,2*%
%TO.N,/AIN0*%
X147042577Y-85462500D03*
%TD*%
%TO.P,R1,1*%
%TO.N,/Key1*%
X131188867Y-82537500D03*
%TO.P,R1,2*%
%TO.N,/AIN0*%
X131188867Y-85462500D03*
%TD*%
%TO.P,R3,1*%
%TO.N,/Key3*%
X137530351Y-82537500D03*
%TO.P,R3,2*%
%TO.N,/AIN0*%
X137530351Y-85462500D03*
%TD*%
%TO.P,R9,1*%
%TO.N,/Key8*%
X153384061Y-82537500D03*
%TO.P,R9,2*%
%TO.N,/AIN0*%
X153384061Y-85462500D03*
%TD*%
D16*
%TO.N,/AIN1*%
X117500000Y-89750000D03*
%TO.N,+1V8*%
X144250000Y-91750000D03*
%TO.N,/Key2*%
X132500000Y-76750000D03*
X132500000Y-54250000D03*
%TO.N,/Key7*%
X150750000Y-53750000D03*
X150750000Y-77250000D03*
%TO.N,/Key9*%
X156750000Y-53750000D03*
X156750000Y-77000000D03*
%TO.N,/Key14*%
X174750000Y-53750000D03*
X174750000Y-77250000D03*
%TO.N,GNDA*%
X115250000Y-86750000D03*
%TD*%
D17*
%TO.N,/Key6*%
X147042577Y-82537500D02*
X147042577Y-78207423D01*
X147042577Y-78207423D02*
X147750000Y-77500000D01*
X147750000Y-77500000D02*
X147750000Y-68250000D01*
%TO.N,/Key7*%
X150750000Y-77250000D02*
X150750000Y-82000819D01*
X150750000Y-82000819D02*
X150213319Y-82537500D01*
%TO.N,/Key9*%
X156750000Y-77000000D02*
X156750000Y-82342303D01*
X156750000Y-82342303D02*
X156554803Y-82537500D01*
%TO.N,/Key14*%
X174750000Y-53750000D02*
X174750000Y-63500000D01*
%TO.N,/Key9*%
X156750000Y-53750000D02*
X156750000Y-63500000D01*
%TO.N,/Key7*%
X150750000Y-53750000D02*
X150750000Y-63750000D01*
%TO.N,/Key2*%
X132500000Y-54250000D02*
X132500000Y-63500000D01*
%TO.N,/AIN1*%
X119500000Y-87750000D02*
X117500000Y-89750000D01*
X160140000Y-87750000D02*
X119500000Y-87750000D01*
X167945000Y-95555000D02*
X160140000Y-87750000D01*
%TO.N,/AIN0*%
X178750000Y-85462500D02*
X178750000Y-89250000D01*
X167945000Y-98095000D02*
X169905000Y-98095000D01*
X169905000Y-98095000D02*
X178750000Y-89250000D01*
X178750000Y-85462500D02*
X128018125Y-85462500D01*
%TO.N,+1V8*%
X150000000Y-91750000D02*
X153805000Y-95555000D01*
X153805000Y-95555000D02*
X157785000Y-95555000D01*
X144250000Y-91750000D02*
X150000000Y-91750000D01*
%TO.N,/Key0*%
X125000000Y-75750000D02*
X125000000Y-67750000D01*
X128018125Y-78768125D02*
X125000000Y-75750000D01*
X128018125Y-82537500D02*
X128018125Y-78768125D01*
%TO.N,/Key1*%
X131188867Y-78561133D02*
X129250000Y-76622266D01*
X129250000Y-76622266D02*
X129250000Y-68500000D01*
X131188867Y-82537500D02*
X131188867Y-78561133D01*
%TO.N,/Key2*%
X134359609Y-78609609D02*
X132500000Y-76750000D01*
X134359609Y-82537500D02*
X134359609Y-78609609D01*
%TO.N,/Key3*%
X135500000Y-76250000D02*
X135500000Y-68250000D01*
X137530351Y-82537500D02*
X137530351Y-78280351D01*
X137530351Y-78280351D02*
X137500000Y-78250000D01*
X137500000Y-78250000D02*
X135500000Y-76250000D01*
%TO.N,/Key4*%
X140701093Y-78298907D02*
X140750000Y-78250000D01*
X140750000Y-78250000D02*
X140000000Y-77500000D01*
X140701093Y-82537500D02*
X140701093Y-78298907D01*
X140000000Y-77500000D02*
X140000000Y-68250000D01*
%TO.N,/Key5*%
X143871835Y-82537500D02*
X143871835Y-78121835D01*
X143871835Y-78121835D02*
X143750000Y-78000000D01*
X143750000Y-78000000D02*
X143750000Y-68250000D01*
%TO.N,/Key8*%
X153384061Y-82537500D02*
X153384061Y-68750000D01*
%TO.N,/Key10*%
X159725545Y-82537500D02*
X159725545Y-68774455D01*
%TO.N,/Key11*%
X163000000Y-77500000D02*
X164250000Y-76250000D01*
X162896287Y-82537500D02*
X163000000Y-82433787D01*
X162896287Y-82537500D02*
X162896287Y-77603713D01*
X162896287Y-77603713D02*
X163000000Y-77500000D01*
X164250000Y-76250000D02*
X164250000Y-68500000D01*
X162701093Y-82342306D02*
X162896287Y-82537500D01*
%TO.N,/Key12*%
X167500000Y-76500000D02*
X167500000Y-68500000D01*
X166067029Y-77932971D02*
X166250000Y-77750000D01*
X166250000Y-77750000D02*
X167500000Y-76500000D01*
X166067029Y-82537500D02*
X166067029Y-77932971D01*
%TO.N,/Key13*%
X169237771Y-82537500D02*
X169237771Y-78262229D01*
X169250000Y-78250000D02*
X172000000Y-75500000D01*
X169237771Y-78262229D02*
X169250000Y-78250000D01*
X172000000Y-75500000D02*
X172000000Y-68750000D01*
%TO.N,/Key14*%
X174750000Y-77250000D02*
X172408513Y-79591487D01*
X172408513Y-79591487D02*
X172408513Y-82537500D01*
%TO.N,/Key15*%
X175500000Y-79500000D02*
X177750000Y-77250000D01*
X177750000Y-77250000D02*
X177750000Y-69000000D01*
X175579255Y-79579255D02*
X175500000Y-79500000D01*
X175579255Y-82537500D02*
X175579255Y-79579255D01*
%TO.N,/Key16*%
X178750000Y-82537500D02*
X178750000Y-79750000D01*
X182250000Y-76250000D02*
X182250000Y-68750000D01*
X179000000Y-79500000D02*
X182250000Y-76250000D01*
X178750000Y-79750000D02*
X179000000Y-79500000D01*
%TO.N,GNDA*%
X160325000Y-97925000D02*
X159750000Y-98500000D01*
X159750000Y-98500000D02*
X122250000Y-98500000D01*
X160325000Y-95555000D02*
X160325000Y-97925000D01*
X122250000Y-98500000D02*
X115250000Y-91500000D01*
X115250000Y-91500000D02*
X115250000Y-86750000D01*
%TD*%
%TA.AperFunction,Conductor*%
%TO.N,/Key9*%
G36*
X158918192Y-59257535D02*
G01*
X158932825Y-59263596D01*
X158979351Y-59303333D01*
X158986401Y-59317170D01*
X158992463Y-59331805D01*
X159000000Y-59369691D01*
X159000000Y-66030308D01*
X158992463Y-66068197D01*
X158986402Y-66082828D01*
X158946663Y-66129352D01*
X158932830Y-66136401D01*
X158925448Y-66139458D01*
X158918197Y-66142462D01*
X158880309Y-66150000D01*
X157500000Y-66150000D01*
X157470710Y-66179289D01*
X157470707Y-66179292D01*
X156684633Y-66965365D01*
X156652516Y-66986825D01*
X156637886Y-66992885D01*
X156576889Y-66997686D01*
X156562116Y-66992886D01*
X156547485Y-66986826D01*
X156515365Y-66965365D01*
X155729289Y-66179289D01*
X155700000Y-66150000D01*
X155658587Y-66150000D01*
X154319691Y-66150000D01*
X154281805Y-66142463D01*
X154267170Y-66136401D01*
X154220647Y-66096663D01*
X154213597Y-66082828D01*
X154207534Y-66068190D01*
X154200000Y-66030308D01*
X154200000Y-59369691D01*
X154207534Y-59331810D01*
X154213596Y-59317173D01*
X154253331Y-59270650D01*
X154267166Y-59263599D01*
X154281810Y-59257534D01*
X154319691Y-59250000D01*
X158880309Y-59250000D01*
X158918192Y-59257535D01*
G37*
%TD.AperFunction*%
%TD*%
%TA.AperFunction,Conductor*%
%TO.N,/Key0*%
G36*
X128568192Y-59257535D02*
G01*
X128582825Y-59263596D01*
X128629351Y-59303333D01*
X128636401Y-59317170D01*
X128642463Y-59331805D01*
X128650000Y-59369691D01*
X128650000Y-66030308D01*
X128642463Y-66068197D01*
X128636402Y-66082828D01*
X128596663Y-66129352D01*
X128582830Y-66136401D01*
X128575448Y-66139458D01*
X128568197Y-66142462D01*
X128530309Y-66150000D01*
X127150000Y-66150000D01*
X126150000Y-67150000D01*
X126150000Y-67191412D01*
X126150000Y-74880308D01*
X126142463Y-74918197D01*
X126136402Y-74932828D01*
X126096663Y-74979352D01*
X126082830Y-74986401D01*
X126075448Y-74989458D01*
X126068197Y-74992462D01*
X126030309Y-75000000D01*
X123969691Y-75000000D01*
X123931805Y-74992463D01*
X123917170Y-74986401D01*
X123870647Y-74946663D01*
X123863597Y-74932828D01*
X123857534Y-74918190D01*
X123850000Y-74880308D01*
X123850000Y-59369691D01*
X123857534Y-59331810D01*
X123863596Y-59317173D01*
X123903331Y-59270650D01*
X123917166Y-59263599D01*
X123931810Y-59257534D01*
X123969691Y-59250000D01*
X128530309Y-59250000D01*
X128568192Y-59257535D01*
G37*
%TD.AperFunction*%
%TD*%
%TA.AperFunction,Conductor*%
%TO.N,/Key11*%
G36*
X165218192Y-59257535D02*
G01*
X165232825Y-59263596D01*
X165279351Y-59303333D01*
X165286401Y-59317170D01*
X165292463Y-59331805D01*
X165300000Y-59369691D01*
X165300000Y-74880308D01*
X165292463Y-74918197D01*
X165286402Y-74932828D01*
X165246663Y-74979352D01*
X165232830Y-74986401D01*
X165225448Y-74989458D01*
X165218197Y-74992462D01*
X165180309Y-75000000D01*
X163119691Y-75000000D01*
X163081805Y-74992463D01*
X163067170Y-74986401D01*
X163020647Y-74946663D01*
X163013597Y-74932828D01*
X163007534Y-74918190D01*
X163000000Y-74880308D01*
X163000000Y-67191422D01*
X163000000Y-67191421D01*
X163000000Y-67150000D01*
X162000000Y-66150000D01*
X161958587Y-66150000D01*
X160619691Y-66150000D01*
X160581805Y-66142463D01*
X160567170Y-66136401D01*
X160520647Y-66096663D01*
X160513597Y-66082828D01*
X160507534Y-66068190D01*
X160500000Y-66030308D01*
X160500000Y-59369691D01*
X160507534Y-59331810D01*
X160513596Y-59317173D01*
X160553331Y-59270650D01*
X160567166Y-59263599D01*
X160581810Y-59257534D01*
X160619691Y-59250000D01*
X165180309Y-59250000D01*
X165218192Y-59257535D01*
G37*
%TD.AperFunction*%
%TD*%
%TA.AperFunction,Conductor*%
%TO.N,/Key6*%
G36*
X149268139Y-67101902D02*
G01*
X149277531Y-67103770D01*
X149313220Y-67118552D01*
X149321179Y-67123870D01*
X149336182Y-67136182D01*
X150163817Y-67963817D01*
X150176129Y-67978820D01*
X150181447Y-67986779D01*
X150196228Y-68022460D01*
X150198097Y-68031853D01*
X150200000Y-68051173D01*
X150200000Y-74880308D01*
X150192463Y-74918197D01*
X150186402Y-74932828D01*
X150146663Y-74979352D01*
X150132830Y-74986401D01*
X150125448Y-74989458D01*
X150118197Y-74992462D01*
X150080309Y-75000000D01*
X145519691Y-75000000D01*
X145481805Y-74992463D01*
X145467170Y-74986401D01*
X145420647Y-74946663D01*
X145413597Y-74932828D01*
X145407534Y-74918190D01*
X145400000Y-74880308D01*
X145400000Y-68051173D01*
X145401901Y-68031863D01*
X145401903Y-68031853D01*
X145403770Y-68022467D01*
X145418550Y-67986781D01*
X145423874Y-67978815D01*
X145436177Y-67963822D01*
X146263822Y-67136177D01*
X146278815Y-67123874D01*
X146286781Y-67118550D01*
X146322467Y-67103770D01*
X146331865Y-67101900D01*
X146351173Y-67100000D01*
X149248827Y-67100000D01*
X149268139Y-67101902D01*
G37*
%TD.AperFunction*%
%TD*%
%TA.AperFunction,Conductor*%
%TO.N,/Key10*%
G36*
X161118139Y-67101902D02*
G01*
X161127531Y-67103770D01*
X161163220Y-67118552D01*
X161171179Y-67123870D01*
X161186182Y-67136182D01*
X162013817Y-67963817D01*
X162026129Y-67978820D01*
X162031447Y-67986779D01*
X162046228Y-68022460D01*
X162048097Y-68031853D01*
X162050000Y-68051173D01*
X162050000Y-74880308D01*
X162042463Y-74918197D01*
X162036402Y-74932828D01*
X161996663Y-74979352D01*
X161982830Y-74986401D01*
X161975448Y-74989458D01*
X161968197Y-74992462D01*
X161930309Y-75000000D01*
X157369691Y-75000000D01*
X157331805Y-74992463D01*
X157317170Y-74986401D01*
X157270647Y-74946663D01*
X157263597Y-74932828D01*
X157257534Y-74918190D01*
X157250000Y-74880308D01*
X157250000Y-68051173D01*
X157251901Y-68031863D01*
X157251903Y-68031853D01*
X157253770Y-68022467D01*
X157268550Y-67986781D01*
X157273874Y-67978815D01*
X157286177Y-67963822D01*
X158113822Y-67136177D01*
X158128815Y-67123874D01*
X158136781Y-67118550D01*
X158172467Y-67103770D01*
X158181865Y-67101900D01*
X158201173Y-67100000D01*
X161098827Y-67100000D01*
X161118139Y-67101902D01*
G37*
%TD.AperFunction*%
%TD*%
%TA.AperFunction,Conductor*%
%TO.N,/Key8*%
G36*
X155268139Y-67101902D02*
G01*
X155277531Y-67103770D01*
X155313220Y-67118552D01*
X155321179Y-67123870D01*
X155336182Y-67136182D01*
X156163817Y-67963817D01*
X156176129Y-67978820D01*
X156181447Y-67986779D01*
X156196228Y-68022460D01*
X156198097Y-68031853D01*
X156200000Y-68051173D01*
X156200000Y-74880308D01*
X156192463Y-74918197D01*
X156186402Y-74932828D01*
X156146663Y-74979352D01*
X156132830Y-74986401D01*
X156125448Y-74989458D01*
X156118197Y-74992462D01*
X156080309Y-75000000D01*
X151519691Y-75000000D01*
X151481805Y-74992463D01*
X151467170Y-74986401D01*
X151420647Y-74946663D01*
X151413597Y-74932828D01*
X151407534Y-74918190D01*
X151400000Y-74880308D01*
X151400000Y-68051173D01*
X151401901Y-68031863D01*
X151401903Y-68031853D01*
X151403770Y-68022467D01*
X151418550Y-67986781D01*
X151423874Y-67978815D01*
X151436177Y-67963822D01*
X152263822Y-67136177D01*
X152278815Y-67123874D01*
X152286781Y-67118550D01*
X152322467Y-67103770D01*
X152331865Y-67101900D01*
X152351173Y-67100000D01*
X155248827Y-67100000D01*
X155268139Y-67101902D01*
G37*
%TD.AperFunction*%
%TD*%
%TA.AperFunction,Conductor*%
%TO.N,/Key16*%
G36*
X183418192Y-59257535D02*
G01*
X183432825Y-59263596D01*
X183479351Y-59303333D01*
X183486401Y-59317170D01*
X183492463Y-59331805D01*
X183500000Y-59369691D01*
X183500000Y-74880308D01*
X183492463Y-74918197D01*
X183486402Y-74932828D01*
X183446663Y-74979352D01*
X183432830Y-74986401D01*
X183425448Y-74989458D01*
X183418197Y-74992462D01*
X183380309Y-75000000D01*
X181319691Y-75000000D01*
X181281805Y-74992463D01*
X181267170Y-74986401D01*
X181220647Y-74946663D01*
X181213597Y-74932828D01*
X181207534Y-74918190D01*
X181200000Y-74880308D01*
X181200000Y-67191422D01*
X181200000Y-67191421D01*
X181200000Y-67150000D01*
X180200000Y-66150000D01*
X180158587Y-66150000D01*
X178819691Y-66150000D01*
X178781805Y-66142463D01*
X178767170Y-66136401D01*
X178720647Y-66096663D01*
X178713597Y-66082828D01*
X178707534Y-66068190D01*
X178700000Y-66030308D01*
X178700000Y-59369691D01*
X178707534Y-59331810D01*
X178713596Y-59317173D01*
X178753331Y-59270650D01*
X178767166Y-59263599D01*
X178781810Y-59257534D01*
X178819691Y-59250000D01*
X183380309Y-59250000D01*
X183418192Y-59257535D01*
G37*
%TD.AperFunction*%
%TD*%
%TA.AperFunction,Conductor*%
%TO.N,/Key2*%
G36*
X134768192Y-59257535D02*
G01*
X134782825Y-59263596D01*
X134829351Y-59303333D01*
X134836401Y-59317170D01*
X134842463Y-59331805D01*
X134850000Y-59369691D01*
X134850000Y-66030308D01*
X134842463Y-66068197D01*
X134836402Y-66082828D01*
X134796663Y-66129352D01*
X134782830Y-66136401D01*
X134775448Y-66139458D01*
X134768197Y-66142462D01*
X134730309Y-66150000D01*
X133350000Y-66150000D01*
X133320710Y-66179289D01*
X133320707Y-66179292D01*
X132534633Y-66965365D01*
X132502516Y-66986825D01*
X132487886Y-66992885D01*
X132426889Y-66997686D01*
X132412116Y-66992886D01*
X132397485Y-66986826D01*
X132365365Y-66965365D01*
X131579289Y-66179289D01*
X131550000Y-66150000D01*
X131508587Y-66150000D01*
X130169691Y-66150000D01*
X130131805Y-66142463D01*
X130117170Y-66136401D01*
X130070647Y-66096663D01*
X130063597Y-66082828D01*
X130057534Y-66068190D01*
X130050000Y-66030308D01*
X130050000Y-59369691D01*
X130057534Y-59331810D01*
X130063596Y-59317173D01*
X130103331Y-59270650D01*
X130117166Y-59263599D01*
X130131810Y-59257534D01*
X130169691Y-59250000D01*
X134730309Y-59250000D01*
X134768192Y-59257535D01*
G37*
%TD.AperFunction*%
%TD*%
%TA.AperFunction,Conductor*%
%TO.N,/Key12*%
G36*
X171118192Y-59257535D02*
G01*
X171132825Y-59263596D01*
X171179351Y-59303333D01*
X171186401Y-59317170D01*
X171192463Y-59331805D01*
X171200000Y-59369691D01*
X171200000Y-66030308D01*
X171192463Y-66068197D01*
X171186402Y-66082828D01*
X171146663Y-66129352D01*
X171132830Y-66136401D01*
X171125448Y-66139458D01*
X171118197Y-66142462D01*
X171080309Y-66150000D01*
X169700000Y-66150000D01*
X168700000Y-67150000D01*
X168700000Y-67191412D01*
X168700000Y-74880308D01*
X168692463Y-74918197D01*
X168686402Y-74932828D01*
X168646663Y-74979352D01*
X168632830Y-74986401D01*
X168625448Y-74989458D01*
X168618197Y-74992462D01*
X168580309Y-75000000D01*
X166519691Y-75000000D01*
X166481805Y-74992463D01*
X166467170Y-74986401D01*
X166420647Y-74946663D01*
X166413597Y-74932828D01*
X166407534Y-74918190D01*
X166400000Y-74880308D01*
X166400000Y-59369691D01*
X166407534Y-59331810D01*
X166413596Y-59317173D01*
X166453331Y-59270650D01*
X166467166Y-59263599D01*
X166481810Y-59257534D01*
X166519691Y-59250000D01*
X171080309Y-59250000D01*
X171118192Y-59257535D01*
G37*
%TD.AperFunction*%
%TD*%
%TA.AperFunction,Conductor*%
%TO.N,/Key14*%
G36*
X177318192Y-59257535D02*
G01*
X177332825Y-59263596D01*
X177379351Y-59303333D01*
X177386401Y-59317170D01*
X177392463Y-59331805D01*
X177400000Y-59369691D01*
X177400000Y-66030308D01*
X177392463Y-66068197D01*
X177386402Y-66082828D01*
X177346663Y-66129352D01*
X177332830Y-66136401D01*
X177325448Y-66139458D01*
X177318197Y-66142462D01*
X177280309Y-66150000D01*
X175900000Y-66150000D01*
X175870710Y-66179289D01*
X175870707Y-66179292D01*
X175084633Y-66965365D01*
X175052516Y-66986825D01*
X175037886Y-66992885D01*
X174976889Y-66997686D01*
X174962116Y-66992886D01*
X174947485Y-66986826D01*
X174915365Y-66965365D01*
X174129289Y-66179289D01*
X174100000Y-66150000D01*
X174058587Y-66150000D01*
X172719691Y-66150000D01*
X172681805Y-66142463D01*
X172667170Y-66136401D01*
X172620647Y-66096663D01*
X172613597Y-66082828D01*
X172607534Y-66068190D01*
X172600000Y-66030308D01*
X172600000Y-59369691D01*
X172607534Y-59331810D01*
X172613596Y-59317173D01*
X172653331Y-59270650D01*
X172667166Y-59263599D01*
X172681810Y-59257534D01*
X172719691Y-59250000D01*
X177280309Y-59250000D01*
X177318192Y-59257535D01*
G37*
%TD.AperFunction*%
%TD*%
%TA.AperFunction,Conductor*%
%TO.N,/Key4*%
G36*
X140868192Y-59257535D02*
G01*
X140882825Y-59263596D01*
X140929351Y-59303333D01*
X140936401Y-59317170D01*
X140942463Y-59331805D01*
X140950000Y-59369691D01*
X140950000Y-74880308D01*
X140942463Y-74918197D01*
X140936402Y-74932828D01*
X140896663Y-74979352D01*
X140882830Y-74986401D01*
X140875448Y-74989458D01*
X140868197Y-74992462D01*
X140830309Y-75000000D01*
X138769691Y-75000000D01*
X138731805Y-74992463D01*
X138717170Y-74986401D01*
X138670647Y-74946663D01*
X138663597Y-74932828D01*
X138657534Y-74918190D01*
X138650000Y-74880308D01*
X138650000Y-67191422D01*
X138650000Y-67191421D01*
X138650000Y-67150000D01*
X137650000Y-66150000D01*
X137608587Y-66150000D01*
X136269691Y-66150000D01*
X136231805Y-66142463D01*
X136217170Y-66136401D01*
X136170647Y-66096663D01*
X136163597Y-66082828D01*
X136157534Y-66068190D01*
X136150000Y-66030308D01*
X136150000Y-59369691D01*
X136157534Y-59331810D01*
X136163596Y-59317173D01*
X136203331Y-59270650D01*
X136217166Y-59263599D01*
X136231810Y-59257534D01*
X136269691Y-59250000D01*
X140830309Y-59250000D01*
X140868192Y-59257535D01*
G37*
%TD.AperFunction*%
%TD*%
%TA.AperFunction,Conductor*%
%TO.N,/Key7*%
G36*
X153168192Y-59257535D02*
G01*
X153182825Y-59263596D01*
X153229351Y-59303333D01*
X153236401Y-59317170D01*
X153242463Y-59331805D01*
X153250000Y-59369691D01*
X153250000Y-66030308D01*
X153242463Y-66068197D01*
X153236402Y-66082828D01*
X153196663Y-66129352D01*
X153182830Y-66136401D01*
X153175448Y-66139458D01*
X153168197Y-66142462D01*
X153130309Y-66150000D01*
X151750000Y-66150000D01*
X151720710Y-66179289D01*
X151720707Y-66179292D01*
X150934633Y-66965365D01*
X150902516Y-66986825D01*
X150887886Y-66992885D01*
X150826889Y-66997686D01*
X150812116Y-66992886D01*
X150797485Y-66986826D01*
X150765365Y-66965365D01*
X149979289Y-66179289D01*
X149950000Y-66150000D01*
X149908587Y-66150000D01*
X148569691Y-66150000D01*
X148531805Y-66142463D01*
X148517170Y-66136401D01*
X148470647Y-66096663D01*
X148463597Y-66082828D01*
X148457534Y-66068190D01*
X148450000Y-66030308D01*
X148450000Y-59369691D01*
X148457534Y-59331810D01*
X148463596Y-59317173D01*
X148503331Y-59270650D01*
X148517166Y-59263599D01*
X148531810Y-59257534D01*
X148569691Y-59250000D01*
X153130309Y-59250000D01*
X153168192Y-59257535D01*
G37*
%TD.AperFunction*%
%TD*%
%TA.AperFunction,Conductor*%
%TO.N,/Key1*%
G36*
X130868139Y-67101902D02*
G01*
X130877531Y-67103770D01*
X130913220Y-67118552D01*
X130921179Y-67123870D01*
X130936182Y-67136182D01*
X131763817Y-67963817D01*
X131776129Y-67978820D01*
X131781447Y-67986779D01*
X131796228Y-68022460D01*
X131798097Y-68031853D01*
X131800000Y-68051173D01*
X131800000Y-74880308D01*
X131792463Y-74918197D01*
X131786402Y-74932828D01*
X131746663Y-74979352D01*
X131732830Y-74986401D01*
X131725448Y-74989458D01*
X131718197Y-74992462D01*
X131680309Y-75000000D01*
X127119691Y-75000000D01*
X127081805Y-74992463D01*
X127067170Y-74986401D01*
X127020647Y-74946663D01*
X127013597Y-74932828D01*
X127007534Y-74918190D01*
X127000000Y-74880308D01*
X127000000Y-68051173D01*
X127001901Y-68031863D01*
X127001903Y-68031853D01*
X127003770Y-68022467D01*
X127018550Y-67986781D01*
X127023874Y-67978815D01*
X127036177Y-67963822D01*
X127863822Y-67136177D01*
X127878815Y-67123874D01*
X127886781Y-67118550D01*
X127922467Y-67103770D01*
X127931865Y-67101900D01*
X127951173Y-67100000D01*
X130848827Y-67100000D01*
X130868139Y-67101902D01*
G37*
%TD.AperFunction*%
%TD*%
%TA.AperFunction,Conductor*%
%TO.N,/Key3*%
G36*
X136868139Y-67101902D02*
G01*
X136877531Y-67103770D01*
X136913220Y-67118552D01*
X136921179Y-67123870D01*
X136936182Y-67136182D01*
X137763817Y-67963817D01*
X137776129Y-67978820D01*
X137781447Y-67986779D01*
X137796228Y-68022460D01*
X137798097Y-68031853D01*
X137800000Y-68051173D01*
X137800000Y-74880308D01*
X137792463Y-74918197D01*
X137786402Y-74932828D01*
X137746663Y-74979352D01*
X137732830Y-74986401D01*
X137725448Y-74989458D01*
X137718197Y-74992462D01*
X137680309Y-75000000D01*
X133119691Y-75000000D01*
X133081805Y-74992463D01*
X133067170Y-74986401D01*
X133020647Y-74946663D01*
X133013597Y-74932828D01*
X133007534Y-74918190D01*
X133000000Y-74880308D01*
X133000000Y-68051173D01*
X133001901Y-68031863D01*
X133001903Y-68031853D01*
X133003770Y-68022467D01*
X133018550Y-67986781D01*
X133023874Y-67978815D01*
X133036177Y-67963822D01*
X133863822Y-67136177D01*
X133878815Y-67123874D01*
X133886781Y-67118550D01*
X133922467Y-67103770D01*
X133931865Y-67101900D01*
X133951173Y-67100000D01*
X136848827Y-67100000D01*
X136868139Y-67101902D01*
G37*
%TD.AperFunction*%
%TD*%
%TA.AperFunction,Conductor*%
%TO.N,/Key13*%
G36*
X173418139Y-67101902D02*
G01*
X173427531Y-67103770D01*
X173463220Y-67118552D01*
X173471179Y-67123870D01*
X173486182Y-67136182D01*
X174313817Y-67963817D01*
X174326129Y-67978820D01*
X174331447Y-67986779D01*
X174346228Y-68022460D01*
X174348097Y-68031853D01*
X174350000Y-68051173D01*
X174350000Y-74880308D01*
X174342463Y-74918197D01*
X174336402Y-74932828D01*
X174296663Y-74979352D01*
X174282830Y-74986401D01*
X174275448Y-74989458D01*
X174268197Y-74992462D01*
X174230309Y-75000000D01*
X169669691Y-75000000D01*
X169631805Y-74992463D01*
X169617170Y-74986401D01*
X169570647Y-74946663D01*
X169563597Y-74932828D01*
X169557534Y-74918190D01*
X169550000Y-74880308D01*
X169550000Y-68051173D01*
X169551901Y-68031863D01*
X169551903Y-68031853D01*
X169553770Y-68022467D01*
X169568550Y-67986781D01*
X169573874Y-67978815D01*
X169586177Y-67963822D01*
X170413822Y-67136177D01*
X170428815Y-67123874D01*
X170436781Y-67118550D01*
X170472467Y-67103770D01*
X170481865Y-67101900D01*
X170501173Y-67100000D01*
X173398827Y-67100000D01*
X173418139Y-67101902D01*
G37*
%TD.AperFunction*%
%TD*%
%TA.AperFunction,Conductor*%
%TO.N,/Key15*%
G36*
X179418139Y-67101902D02*
G01*
X179427531Y-67103770D01*
X179463220Y-67118552D01*
X179471179Y-67123870D01*
X179486182Y-67136182D01*
X180313817Y-67963817D01*
X180326129Y-67978820D01*
X180331447Y-67986779D01*
X180346228Y-68022460D01*
X180348097Y-68031853D01*
X180350000Y-68051173D01*
X180350000Y-74880308D01*
X180342463Y-74918197D01*
X180336402Y-74932828D01*
X180296663Y-74979352D01*
X180282830Y-74986401D01*
X180275448Y-74989458D01*
X180268197Y-74992462D01*
X180230309Y-75000000D01*
X175669691Y-75000000D01*
X175631805Y-74992463D01*
X175617170Y-74986401D01*
X175570647Y-74946663D01*
X175563597Y-74932828D01*
X175557534Y-74918190D01*
X175550000Y-74880308D01*
X175550000Y-68051173D01*
X175551901Y-68031863D01*
X175551903Y-68031853D01*
X175553770Y-68022467D01*
X175568550Y-67986781D01*
X175573874Y-67978815D01*
X175586177Y-67963822D01*
X176413822Y-67136177D01*
X176428815Y-67123874D01*
X176436781Y-67118550D01*
X176472467Y-67103770D01*
X176481865Y-67101900D01*
X176501173Y-67100000D01*
X179398827Y-67100000D01*
X179418139Y-67101902D01*
G37*
%TD.AperFunction*%
%TD*%
%TA.AperFunction,Conductor*%
%TO.N,/Key5*%
G36*
X146968192Y-59257535D02*
G01*
X146982825Y-59263596D01*
X147029351Y-59303333D01*
X147036401Y-59317170D01*
X147042463Y-59331805D01*
X147050000Y-59369691D01*
X147050000Y-66030308D01*
X147042463Y-66068197D01*
X147036402Y-66082828D01*
X146996663Y-66129352D01*
X146982830Y-66136401D01*
X146975448Y-66139458D01*
X146968197Y-66142462D01*
X146930309Y-66150000D01*
X145550000Y-66150000D01*
X144550000Y-67150000D01*
X144550000Y-67191412D01*
X144550000Y-74880308D01*
X144542463Y-74918197D01*
X144536402Y-74932828D01*
X144496663Y-74979352D01*
X144482830Y-74986401D01*
X144475448Y-74989458D01*
X144468197Y-74992462D01*
X144430309Y-75000000D01*
X142369691Y-75000000D01*
X142331805Y-74992463D01*
X142317170Y-74986401D01*
X142270647Y-74946663D01*
X142263597Y-74932828D01*
X142257534Y-74918190D01*
X142250000Y-74880308D01*
X142250000Y-59369691D01*
X142257534Y-59331810D01*
X142263596Y-59317173D01*
X142303331Y-59270650D01*
X142317166Y-59263599D01*
X142331810Y-59257534D01*
X142369691Y-59250000D01*
X146930309Y-59250000D01*
X146968192Y-59257535D01*
G37*
%TD.AperFunction*%
%TD*%
%TA.AperFunction,Conductor*%
%TO.N,/Key6*%
G36*
X147540378Y-81415927D02*
G01*
X147543733Y-81422908D01*
X147604456Y-81969417D01*
X147601964Y-81978018D01*
X147601108Y-81978975D01*
X147050857Y-82530205D01*
X147042587Y-82533639D01*
X147034311Y-82530219D01*
X147034297Y-82530205D01*
X146484045Y-81978975D01*
X146480625Y-81970699D01*
X146480697Y-81969417D01*
X146541421Y-81422908D01*
X146545740Y-81415064D01*
X146553049Y-81412500D01*
X147532105Y-81412500D01*
X147540378Y-81415927D01*
G37*
%TD.AperFunction*%
%TD*%
%TA.AperFunction,Conductor*%
%TO.N,/Key7*%
G36*
X151486208Y-77249981D02*
G01*
X151494475Y-77253419D01*
X151497891Y-77261697D01*
X151497732Y-77263604D01*
X151251630Y-78740223D01*
X151246889Y-78747821D01*
X151240089Y-78750000D01*
X150259911Y-78750000D01*
X150251638Y-78746573D01*
X150248370Y-78740223D01*
X150002267Y-77263604D01*
X150004287Y-77254881D01*
X150011885Y-77250140D01*
X150013784Y-77249981D01*
X150750000Y-77249000D01*
X151486208Y-77249981D01*
G37*
%TD.AperFunction*%
%TD*%
%TA.AperFunction,Conductor*%
%TO.N,/Key9*%
G36*
X157486208Y-76999981D02*
G01*
X157494475Y-77003419D01*
X157497891Y-77011697D01*
X157497732Y-77013604D01*
X157251630Y-78490223D01*
X157246889Y-78497821D01*
X157240089Y-78500000D01*
X156259911Y-78500000D01*
X156251638Y-78496573D01*
X156248370Y-78490223D01*
X156002267Y-77013604D01*
X156004287Y-77004881D01*
X156011885Y-77000140D01*
X156013784Y-76999981D01*
X156750000Y-76999000D01*
X157486208Y-76999981D01*
G37*
%TD.AperFunction*%
%TD*%
%TA.AperFunction,Conductor*%
%TO.N,/Key9*%
G36*
X157245983Y-81415927D02*
G01*
X157249410Y-81424200D01*
X157249396Y-81424775D01*
X157222177Y-81978245D01*
X157218348Y-81986340D01*
X157217975Y-81986664D01*
X156563756Y-82531049D01*
X156555204Y-82533706D01*
X156547312Y-82529579D01*
X156085656Y-81979832D01*
X156082960Y-81971293D01*
X156083406Y-81968958D01*
X156247502Y-81420844D01*
X156253157Y-81413902D01*
X156258710Y-81412500D01*
X157237710Y-81412500D01*
X157245983Y-81415927D01*
G37*
%TD.AperFunction*%
%TD*%
%TA.AperFunction,Conductor*%
%TO.N,/Key14*%
G36*
X175486208Y-53749981D02*
G01*
X175494475Y-53753419D01*
X175497891Y-53761697D01*
X175497732Y-53763604D01*
X175251630Y-55240223D01*
X175246889Y-55247821D01*
X175240089Y-55250000D01*
X174259911Y-55250000D01*
X174251638Y-55246573D01*
X174248370Y-55240223D01*
X174002267Y-53763604D01*
X174004287Y-53754881D01*
X174011885Y-53750140D01*
X174013784Y-53749981D01*
X174750000Y-53749000D01*
X175486208Y-53749981D01*
G37*
%TD.AperFunction*%
%TD*%
%TA.AperFunction,Conductor*%
%TO.N,/Key9*%
G36*
X157486208Y-53749981D02*
G01*
X157494475Y-53753419D01*
X157497891Y-53761697D01*
X157497732Y-53763604D01*
X157251630Y-55240223D01*
X157246889Y-55247821D01*
X157240089Y-55250000D01*
X156259911Y-55250000D01*
X156251638Y-55246573D01*
X156248370Y-55240223D01*
X156002267Y-53763604D01*
X156004287Y-53754881D01*
X156011885Y-53750140D01*
X156013784Y-53749981D01*
X156750000Y-53749000D01*
X157486208Y-53749981D01*
G37*
%TD.AperFunction*%
%TD*%
%TA.AperFunction,Conductor*%
%TO.N,/Key7*%
G36*
X151486208Y-53749981D02*
G01*
X151494475Y-53753419D01*
X151497891Y-53761697D01*
X151497732Y-53763604D01*
X151251630Y-55240223D01*
X151246889Y-55247821D01*
X151240089Y-55250000D01*
X150259911Y-55250000D01*
X150251638Y-55246573D01*
X150248370Y-55240223D01*
X150002267Y-53763604D01*
X150004287Y-53754881D01*
X150011885Y-53750140D01*
X150013784Y-53749981D01*
X150750000Y-53749000D01*
X151486208Y-53749981D01*
G37*
%TD.AperFunction*%
%TD*%
%TA.AperFunction,Conductor*%
%TO.N,/Key2*%
G36*
X133236208Y-54249981D02*
G01*
X133244475Y-54253419D01*
X133247891Y-54261697D01*
X133247732Y-54263604D01*
X133001630Y-55740223D01*
X132996889Y-55747821D01*
X132990089Y-55750000D01*
X132009911Y-55750000D01*
X132001638Y-55746573D01*
X131998370Y-55740223D01*
X131752267Y-54263604D01*
X131754287Y-54254881D01*
X131761885Y-54250140D01*
X131763784Y-54249981D01*
X132500000Y-54249000D01*
X133236208Y-54249981D01*
G37*
%TD.AperFunction*%
%TD*%
%TA.AperFunction,Conductor*%
%TO.N,/AIN1*%
G36*
X118214114Y-88342795D02*
G01*
X118907204Y-89035885D01*
X118910631Y-89044158D01*
X118908452Y-89050958D01*
X118038347Y-90269106D01*
X118030749Y-90273847D01*
X118022026Y-90271827D01*
X118020564Y-90270590D01*
X117499293Y-89750707D01*
X117499271Y-89750685D01*
X116979409Y-89229435D01*
X116975993Y-89221157D01*
X116979431Y-89212889D01*
X116980881Y-89211662D01*
X118199042Y-88341546D01*
X118207764Y-88339527D01*
X118214114Y-88342795D01*
G37*
%TD.AperFunction*%
%TD*%
%TA.AperFunction,Conductor*%
%TO.N,/AIN1*%
G36*
X167104430Y-94004587D02*
G01*
X168262194Y-94764395D01*
X168267231Y-94771799D01*
X168266589Y-94778642D01*
X167947562Y-95551214D01*
X167941237Y-95557553D01*
X167941214Y-95557562D01*
X167168642Y-95876589D01*
X167159687Y-95876580D01*
X167154395Y-95872195D01*
X166394587Y-94714430D01*
X166392914Y-94705635D01*
X166396095Y-94699741D01*
X167089740Y-94006096D01*
X167098012Y-94002670D01*
X167104430Y-94004587D01*
G37*
%TD.AperFunction*%
%TD*%
%TA.AperFunction,Conductor*%
%TO.N,/AIN0*%
G36*
X178758264Y-85469779D02*
G01*
X179268822Y-85981244D01*
X179308531Y-86021024D01*
X179311951Y-86029300D01*
X179311879Y-86030582D01*
X179251156Y-86577092D01*
X179246837Y-86584936D01*
X179239528Y-86587500D01*
X178260472Y-86587500D01*
X178252199Y-86584073D01*
X178248844Y-86577092D01*
X178188120Y-86030582D01*
X178190612Y-86021981D01*
X178191459Y-86021033D01*
X178741721Y-85469793D01*
X178749990Y-85466360D01*
X178758264Y-85469779D01*
G37*
%TD.AperFunction*%
%TD*%
%TA.AperFunction,Conductor*%
%TO.N,/AIN0*%
G36*
X169635677Y-97593065D02*
G01*
X169643082Y-97598102D01*
X169645000Y-97604521D01*
X169645000Y-98585478D01*
X169641573Y-98593751D01*
X169635677Y-98596934D01*
X168279751Y-98878332D01*
X168270955Y-98876658D01*
X168266569Y-98871365D01*
X167945865Y-98099489D01*
X167945856Y-98090534D01*
X167945865Y-98090511D01*
X168266570Y-97318632D01*
X168272908Y-97312309D01*
X168279749Y-97311667D01*
X169635677Y-97593065D01*
G37*
%TD.AperFunction*%
%TD*%
%TA.AperFunction,Conductor*%
%TO.N,/AIN0*%
G36*
X178128518Y-84903167D02*
G01*
X178128724Y-84903347D01*
X178741314Y-85453797D01*
X178745177Y-85461876D01*
X178742197Y-85470320D01*
X178741314Y-85471203D01*
X178128724Y-86021652D01*
X178120280Y-86024632D01*
X178120007Y-86024615D01*
X177323303Y-85963331D01*
X177315317Y-85959279D01*
X177312500Y-85951665D01*
X177312500Y-84973335D01*
X177315927Y-84965062D01*
X177323303Y-84961669D01*
X178120007Y-84900384D01*
X178128518Y-84903167D01*
G37*
%TD.AperFunction*%
%TD*%
%TA.AperFunction,Conductor*%
%TO.N,/AIN0*%
G36*
X128648117Y-84900384D02*
G01*
X129444822Y-84961669D01*
X129452808Y-84965721D01*
X129455625Y-84973335D01*
X129455625Y-85951665D01*
X129452198Y-85959938D01*
X129444822Y-85963331D01*
X128648117Y-86024615D01*
X128639606Y-86021832D01*
X128639400Y-86021652D01*
X128026810Y-85471203D01*
X128022947Y-85463124D01*
X128025927Y-85454680D01*
X128026810Y-85453797D01*
X128639400Y-84903347D01*
X128647844Y-84900367D01*
X128648117Y-84900384D01*
G37*
%TD.AperFunction*%
%TD*%
%TA.AperFunction,Conductor*%
%TO.N,+1V8*%
G36*
X157459044Y-94773341D02*
G01*
X157463430Y-94778634D01*
X157784134Y-95550511D01*
X157784143Y-95559466D01*
X157784134Y-95559489D01*
X157463430Y-96331365D01*
X157457091Y-96337690D01*
X157450248Y-96338332D01*
X156094323Y-96056934D01*
X156086918Y-96051897D01*
X156085000Y-96045478D01*
X156085000Y-95064521D01*
X156088427Y-95056248D01*
X156094322Y-95053065D01*
X157450249Y-94771667D01*
X157459044Y-94773341D01*
G37*
%TD.AperFunction*%
%TD*%
%TA.AperFunction,Conductor*%
%TO.N,+1V8*%
G36*
X144263599Y-91002266D02*
G01*
X145740224Y-91248370D01*
X145747821Y-91253111D01*
X145750000Y-91259911D01*
X145750000Y-92240088D01*
X145746573Y-92248361D01*
X145740223Y-92251629D01*
X144263604Y-92497732D01*
X144254881Y-92495712D01*
X144250140Y-92488114D01*
X144249981Y-92486214D01*
X144249000Y-91750000D01*
X144249981Y-91013790D01*
X144253419Y-91005524D01*
X144261697Y-91002108D01*
X144263599Y-91002266D01*
G37*
%TD.AperFunction*%
%TD*%
%TA.AperFunction,Conductor*%
%TO.N,/Key0*%
G36*
X128515926Y-81415927D02*
G01*
X128519281Y-81422908D01*
X128580004Y-81969417D01*
X128577512Y-81978018D01*
X128576656Y-81978975D01*
X128026405Y-82530205D01*
X128018135Y-82533639D01*
X128009859Y-82530219D01*
X128009845Y-82530205D01*
X127459593Y-81978975D01*
X127456173Y-81970699D01*
X127456245Y-81969417D01*
X127516969Y-81422908D01*
X127521288Y-81415064D01*
X127528597Y-81412500D01*
X128507653Y-81412500D01*
X128515926Y-81415927D01*
G37*
%TD.AperFunction*%
%TD*%
%TA.AperFunction,Conductor*%
%TO.N,/Key1*%
G36*
X131686668Y-81415927D02*
G01*
X131690023Y-81422908D01*
X131750746Y-81969417D01*
X131748254Y-81978018D01*
X131747398Y-81978975D01*
X131197147Y-82530205D01*
X131188877Y-82533639D01*
X131180601Y-82530219D01*
X131180587Y-82530205D01*
X130630335Y-81978975D01*
X130626915Y-81970699D01*
X130626987Y-81969417D01*
X130687711Y-81422908D01*
X130692030Y-81415064D01*
X130699339Y-81412500D01*
X131678395Y-81412500D01*
X131686668Y-81415927D01*
G37*
%TD.AperFunction*%
%TD*%
%TA.AperFunction,Conductor*%
%TO.N,/Key2*%
G36*
X133037110Y-76229431D02*
G01*
X133038343Y-76230888D01*
X133408632Y-76749293D01*
X133908452Y-77449041D01*
X133910472Y-77457764D01*
X133907204Y-77464114D01*
X133214114Y-78157204D01*
X133205841Y-78160631D01*
X133199041Y-78158452D01*
X132793260Y-77868609D01*
X131980892Y-77288345D01*
X131976152Y-77280749D01*
X131978172Y-77272026D01*
X131979403Y-77270570D01*
X132499293Y-76749293D01*
X133020565Y-76229408D01*
X133028842Y-76225993D01*
X133037110Y-76229431D01*
G37*
%TD.AperFunction*%
%TD*%
%TA.AperFunction,Conductor*%
%TO.N,/Key2*%
G36*
X134857410Y-81415927D02*
G01*
X134860765Y-81422908D01*
X134921488Y-81969417D01*
X134918996Y-81978018D01*
X134918140Y-81978975D01*
X134367889Y-82530205D01*
X134359619Y-82533639D01*
X134351343Y-82530219D01*
X134351329Y-82530205D01*
X133801077Y-81978975D01*
X133797657Y-81970699D01*
X133797729Y-81969417D01*
X133858453Y-81422908D01*
X133862772Y-81415064D01*
X133870081Y-81412500D01*
X134849137Y-81412500D01*
X134857410Y-81415927D01*
G37*
%TD.AperFunction*%
%TD*%
%TA.AperFunction,Conductor*%
%TO.N,/Key3*%
G36*
X138028152Y-81415927D02*
G01*
X138031507Y-81422908D01*
X138092230Y-81969417D01*
X138089738Y-81978018D01*
X138088882Y-81978975D01*
X137538631Y-82530205D01*
X137530361Y-82533639D01*
X137522085Y-82530219D01*
X137522071Y-82530205D01*
X136971819Y-81978975D01*
X136968399Y-81970699D01*
X136968471Y-81969417D01*
X137029195Y-81422908D01*
X137033514Y-81415064D01*
X137040823Y-81412500D01*
X138019879Y-81412500D01*
X138028152Y-81415927D01*
G37*
%TD.AperFunction*%
%TD*%
%TA.AperFunction,Conductor*%
%TO.N,/Key4*%
G36*
X141198894Y-81415927D02*
G01*
X141202249Y-81422908D01*
X141262972Y-81969417D01*
X141260480Y-81978018D01*
X141259624Y-81978975D01*
X140709373Y-82530205D01*
X140701103Y-82533639D01*
X140692827Y-82530219D01*
X140692813Y-82530205D01*
X140142561Y-81978975D01*
X140139141Y-81970699D01*
X140139213Y-81969417D01*
X140199937Y-81422908D01*
X140204256Y-81415064D01*
X140211565Y-81412500D01*
X141190621Y-81412500D01*
X141198894Y-81415927D01*
G37*
%TD.AperFunction*%
%TD*%
%TA.AperFunction,Conductor*%
%TO.N,/Key5*%
G36*
X144369636Y-81415927D02*
G01*
X144372991Y-81422908D01*
X144433714Y-81969417D01*
X144431222Y-81978018D01*
X144430366Y-81978975D01*
X143880115Y-82530205D01*
X143871845Y-82533639D01*
X143863569Y-82530219D01*
X143863555Y-82530205D01*
X143313303Y-81978975D01*
X143309883Y-81970699D01*
X143309955Y-81969417D01*
X143370679Y-81422908D01*
X143374998Y-81415064D01*
X143382307Y-81412500D01*
X144361363Y-81412500D01*
X144369636Y-81415927D01*
G37*
%TD.AperFunction*%
%TD*%
%TA.AperFunction,Conductor*%
%TO.N,/Key8*%
G36*
X153881862Y-81415927D02*
G01*
X153885217Y-81422908D01*
X153945940Y-81969417D01*
X153943448Y-81978018D01*
X153942592Y-81978975D01*
X153392341Y-82530205D01*
X153384071Y-82533639D01*
X153375795Y-82530219D01*
X153375781Y-82530205D01*
X152825529Y-81978975D01*
X152822109Y-81970699D01*
X152822181Y-81969417D01*
X152882905Y-81422908D01*
X152887224Y-81415064D01*
X152894533Y-81412500D01*
X153873589Y-81412500D01*
X153881862Y-81415927D01*
G37*
%TD.AperFunction*%
%TD*%
%TA.AperFunction,Conductor*%
%TO.N,/Key10*%
G36*
X160223346Y-81415927D02*
G01*
X160226701Y-81422908D01*
X160287424Y-81969417D01*
X160284932Y-81978018D01*
X160284076Y-81978975D01*
X159733825Y-82530205D01*
X159725555Y-82533639D01*
X159717279Y-82530219D01*
X159717265Y-82530205D01*
X159167013Y-81978975D01*
X159163593Y-81970699D01*
X159163665Y-81969417D01*
X159224389Y-81422908D01*
X159228708Y-81415064D01*
X159236017Y-81412500D01*
X160215073Y-81412500D01*
X160223346Y-81415927D01*
G37*
%TD.AperFunction*%
%TD*%
%TA.AperFunction,Conductor*%
%TO.N,/Key11*%
G36*
X163394088Y-81415927D02*
G01*
X163397443Y-81422908D01*
X163458166Y-81969417D01*
X163455674Y-81978018D01*
X163454818Y-81978975D01*
X162904567Y-82530205D01*
X162896297Y-82533639D01*
X162888021Y-82530219D01*
X162888007Y-82530205D01*
X162337755Y-81978975D01*
X162334335Y-81970699D01*
X162334407Y-81969417D01*
X162395131Y-81422908D01*
X162399450Y-81415064D01*
X162406759Y-81412500D01*
X163385815Y-81412500D01*
X163394088Y-81415927D01*
G37*
%TD.AperFunction*%
%TD*%
%TA.AperFunction,Conductor*%
%TO.N,/Key12*%
G36*
X166564830Y-81415927D02*
G01*
X166568185Y-81422908D01*
X166628908Y-81969417D01*
X166626416Y-81978018D01*
X166625560Y-81978975D01*
X166075309Y-82530205D01*
X166067039Y-82533639D01*
X166058763Y-82530219D01*
X166058749Y-82530205D01*
X165508497Y-81978975D01*
X165505077Y-81970699D01*
X165505149Y-81969417D01*
X165565873Y-81422908D01*
X165570192Y-81415064D01*
X165577501Y-81412500D01*
X166556557Y-81412500D01*
X166564830Y-81415927D01*
G37*
%TD.AperFunction*%
%TD*%
%TA.AperFunction,Conductor*%
%TO.N,/Key13*%
G36*
X169735572Y-81415927D02*
G01*
X169738927Y-81422908D01*
X169799650Y-81969417D01*
X169797158Y-81978018D01*
X169796302Y-81978975D01*
X169246051Y-82530205D01*
X169237781Y-82533639D01*
X169229505Y-82530219D01*
X169229491Y-82530205D01*
X168679239Y-81978975D01*
X168675819Y-81970699D01*
X168675891Y-81969417D01*
X168736615Y-81422908D01*
X168740934Y-81415064D01*
X168748243Y-81412500D01*
X169727299Y-81412500D01*
X169735572Y-81415927D01*
G37*
%TD.AperFunction*%
%TD*%
%TA.AperFunction,Conductor*%
%TO.N,/Key14*%
G36*
X174227973Y-76728172D02*
G01*
X174229435Y-76729409D01*
X174750707Y-77249293D01*
X174750729Y-77249315D01*
X175270590Y-77770564D01*
X175274006Y-77778842D01*
X175270568Y-77787110D01*
X175269106Y-77788347D01*
X174050958Y-78658452D01*
X174042235Y-78660472D01*
X174035885Y-78657204D01*
X173342795Y-77964114D01*
X173339368Y-77955841D01*
X173341546Y-77949042D01*
X174211654Y-76730891D01*
X174219250Y-76726152D01*
X174227973Y-76728172D01*
G37*
%TD.AperFunction*%
%TD*%
%TA.AperFunction,Conductor*%
%TO.N,/Key14*%
G36*
X172906314Y-81415927D02*
G01*
X172909669Y-81422908D01*
X172970392Y-81969417D01*
X172967900Y-81978018D01*
X172967044Y-81978975D01*
X172416793Y-82530205D01*
X172408523Y-82533639D01*
X172400247Y-82530219D01*
X172400233Y-82530205D01*
X171849981Y-81978975D01*
X171846561Y-81970699D01*
X171846633Y-81969417D01*
X171907357Y-81422908D01*
X171911676Y-81415064D01*
X171918985Y-81412500D01*
X172898041Y-81412500D01*
X172906314Y-81415927D01*
G37*
%TD.AperFunction*%
%TD*%
%TA.AperFunction,Conductor*%
%TO.N,/Key15*%
G36*
X176077056Y-81415927D02*
G01*
X176080411Y-81422908D01*
X176141134Y-81969417D01*
X176138642Y-81978018D01*
X176137786Y-81978975D01*
X175587535Y-82530205D01*
X175579265Y-82533639D01*
X175570989Y-82530219D01*
X175570975Y-82530205D01*
X175020723Y-81978975D01*
X175017303Y-81970699D01*
X175017375Y-81969417D01*
X175078099Y-81422908D01*
X175082418Y-81415064D01*
X175089727Y-81412500D01*
X176068783Y-81412500D01*
X176077056Y-81415927D01*
G37*
%TD.AperFunction*%
%TD*%
%TA.AperFunction,Conductor*%
%TO.N,/Key16*%
G36*
X179247801Y-81415927D02*
G01*
X179251156Y-81422908D01*
X179311879Y-81969417D01*
X179309387Y-81978018D01*
X179308531Y-81978975D01*
X178758280Y-82530205D01*
X178750010Y-82533639D01*
X178741734Y-82530219D01*
X178741720Y-82530205D01*
X178191468Y-81978975D01*
X178188048Y-81970699D01*
X178188120Y-81969417D01*
X178248844Y-81422908D01*
X178253163Y-81415064D01*
X178260472Y-81412500D01*
X179239528Y-81412500D01*
X179247801Y-81415927D01*
G37*
%TD.AperFunction*%
%TD*%
%TA.AperFunction,Conductor*%
%TO.N,GNDA*%
G36*
X160329484Y-95555863D02*
G01*
X161101365Y-95876569D01*
X161107690Y-95882908D01*
X161108332Y-95889751D01*
X160826935Y-97245677D01*
X160821898Y-97253082D01*
X160815479Y-97255000D01*
X159834521Y-97255000D01*
X159826248Y-97251573D01*
X159823065Y-97245677D01*
X159541667Y-95889751D01*
X159543341Y-95880955D01*
X159548631Y-95876570D01*
X160320511Y-95555864D01*
X160329466Y-95555856D01*
X160329484Y-95555863D01*
G37*
%TD.AperFunction*%
%TD*%
%TA.AperFunction,Conductor*%
%TO.N,GNDA*%
G36*
X115986208Y-86749981D02*
G01*
X115994475Y-86753419D01*
X115997891Y-86761697D01*
X115997732Y-86763604D01*
X115751630Y-88240223D01*
X115746889Y-88247821D01*
X115740089Y-88250000D01*
X114759911Y-88250000D01*
X114751638Y-88246573D01*
X114748370Y-88240223D01*
X114502267Y-86763604D01*
X114504287Y-86754881D01*
X114511885Y-86750140D01*
X114513784Y-86749981D01*
X115250000Y-86749000D01*
X115986208Y-86749981D01*
G37*
%TD.AperFunction*%
%TD*%
M02*
